<?xml version="1.0" encoding="UTF-8"?>
<svg width="256px" height="256px" viewBox="0 0 256 256" xmlns="http://www.w3.org/2000/svg" xmlns:xlink="http://www.w3.org/1999/xlink" version="1.1">
 <!-- Generated by Pixelmator Pro 2.3.2 -->
 <path id="Путь" d="M256 128 L256 196 C256 229.137 229.137 256 196 256 L60 256 C26.863 256 0 229.137 0 196 L0 60 C0 26.863 26.863 0 60 0 L196 0 C229.137 0 256 26.863 256 60 Z" fill="#242938" fill-opacity="1" stroke="none"/>
 <g id="New-Group">
  <path id="Путь-1" d="M127.733 109.996 C135.536 109.996 141.861 103.67 141.861 95.867 141.861 88.065 135.536 81.739 127.733 81.739 119.93 81.739 113.604 88.065 113.604 95.867 113.604 103.67 119.93 109.996 127.733 109.996 Z" fill="#00d8ff" fill-opacity="1" stroke="none"/>
  <path id="Путь-2" d="M127.733 67.141 C146.703 67.141 164.325 69.863 177.612 74.437 193.621 79.949 203.464 88.303 203.464 95.867 203.464 103.75 193.032 112.625 175.84 118.321 162.843 122.627 145.74 124.875 127.733 124.875 109.271 124.875 91.789 122.765 78.645 118.273 62.016 112.59 52 103.6 52 95.867 52 88.364 61.398 80.074 77.182 74.572 90.518 69.922 108.575 67.141 127.73 67.141 Z" fill="none" stroke="#00d8ff" stroke-width="6.748" stroke-opacity="1" stroke-linejoin="round" stroke-linecap="round"/>
  <path id="Путь-3" d="M102.726 81.587 C112.203 65.155 123.364 51.249 133.965 42.024 146.736 30.909 158.891 26.556 165.443 30.335 172.272 34.273 174.749 47.743 171.095 65.481 168.335 78.891 161.735 94.83 152.739 110.429 143.516 126.422 132.955 140.513 122.499 149.652 109.268 161.218 96.476 165.404 89.778 161.54 83.277 157.795 80.792 145.51 83.91 129.088 86.545 115.212 93.157 98.18 102.723 81.587 Z" fill="none" stroke="#00d8ff" stroke-width="6.748" stroke-opacity="1" stroke-linejoin="round" stroke-linecap="round"/>
  <path id="Путь-4" d="M102.75 110.471 C93.246 94.057 86.776 77.44 84.075 63.649 80.824 47.032 83.122 34.328 89.669 30.538 96.491 26.589 109.399 31.17 122.941 43.195 133.18 52.286 143.694 65.961 152.716 81.545 161.966 97.523 168.898 113.711 171.595 127.333 175.007 144.573 172.245 157.745 165.553 161.618 159.06 165.378 147.177 161.398 134.506 150.494 123.801 141.282 112.347 127.048 102.75 110.471 Z" fill="none" stroke="#00d8ff" stroke-width="6.748" stroke-opacity="1" stroke-linejoin="round" stroke-linecap="round"/>
 </g>
 <defs>
  <text id="string" transform="matrix(1.0 0.0 0.0 1.0 46.0 182.0)" font-family="HiraginoSansGB-W3, Hiragino Sans GB" fill="#00d8ff" font-size="51.678" x="1.6147186305191639" y="45.0" text-decoration="none">Native</text>
 </defs>
 <use id="Native" xlink:href="#string"/>
</svg>
